<svg width="113" height="16" viewBox="0 0 113 16" fill="none" xmlns="http://www.w3.org/2000/svg">
<path d="M11.2784 4.4375C10.9545 1.75 8.92045 0.204545 6.22727 0.204545C3.15341 0.204545 0.806818 2.375 0.806818 6.18182C0.806818 9.97727 3.11364 12.1591 6.22727 12.1591C9.21023 12.1591 11.0114 10.1761 11.2784 8.03409L8.78977 8.02273C8.55682 9.26705 7.57955 9.98295 6.26705 9.98295C4.5 9.98295 3.30114 8.67045 3.30114 6.18182C3.30114 3.76136 4.48295 2.38068 6.28409 2.38068C7.63068 2.38068 8.60227 3.15909 8.78977 4.4375H11.2784ZM16.9403 12.1705C19.5881 12.1705 21.2358 10.358 21.2358 7.67045C21.2358 4.96591 19.5881 3.15909 16.9403 3.15909C14.2926 3.15909 12.6449 4.96591 12.6449 7.67045C12.6449 10.358 14.2926 12.1705 16.9403 12.1705ZM16.9517 10.2955C15.7301 10.2955 15.1051 9.17614 15.1051 7.65341C15.1051 6.13068 15.7301 5.00568 16.9517 5.00568C18.1506 5.00568 18.7756 6.13068 18.7756 7.65341C18.7756 9.17614 18.1506 10.2955 16.9517 10.2955ZM22.8097 12H25.2301V6.76136C25.2301 5.79545 25.8438 5.15341 26.6506 5.15341C27.446 5.15341 27.9801 5.69886 27.9801 6.55682V12H30.3267V6.67045C30.3267 5.76705 30.8438 5.15341 31.7244 5.15341C32.4972 5.15341 33.0767 5.63636 33.0767 6.60795V12H35.4915V6.13068C35.4915 4.23864 34.3665 3.15909 32.7415 3.15909C31.4631 3.15909 30.4688 3.8125 30.1108 4.8125H30.0199C29.7415 3.80114 28.8494 3.15909 27.6506 3.15909C26.4744 3.15909 25.5824 3.78409 25.2188 4.8125H25.1165V3.27273H22.8097V12ZM37.4034 15.2727H39.8239V10.6023H39.8977C40.233 11.3295 40.9659 12.142 42.375 12.142C44.3636 12.142 45.9148 10.5682 45.9148 7.64773C45.9148 4.64773 44.2955 3.15909 42.3807 3.15909C40.9205 3.15909 40.2216 4.02841 39.8977 4.73864H39.7898V3.27273H37.4034V15.2727ZM39.7727 7.63636C39.7727 6.07955 40.4318 5.08523 41.608 5.08523C42.8068 5.08523 43.4432 6.125 43.4432 7.63636C43.4432 9.15909 42.7955 10.2159 41.608 10.2159C40.4432 10.2159 39.7727 9.19318 39.7727 7.63636ZM50.017 12.1648C51.3068 12.1648 52.142 11.6023 52.5682 10.7898H52.6364V12H54.9318V6.11364C54.9318 4.03409 53.1705 3.15909 51.2273 3.15909C49.1364 3.15909 47.7614 4.15909 47.4261 5.75L49.6648 5.93182C49.8295 5.35227 50.3466 4.92614 51.2159 4.92614C52.0398 4.92614 52.5114 5.34091 52.5114 6.05682V6.09091C52.5114 6.65341 51.9148 6.72727 50.3977 6.875C48.6705 7.03409 47.1193 7.61364 47.1193 9.5625C47.1193 11.2898 48.3523 12.1648 50.017 12.1648ZM50.7102 10.4943C49.9659 10.4943 49.4318 10.1477 49.4318 9.48295C49.4318 8.80114 49.9943 8.46591 50.8466 8.34659C51.375 8.27273 52.2386 8.14773 52.5284 7.95455V8.88068C52.5284 9.79545 51.7727 10.4943 50.7102 10.4943ZM59.2301 6.95455C59.2358 5.82955 59.9062 5.17045 60.8835 5.17045C61.8551 5.17045 62.4403 5.80682 62.4347 6.875V12H64.8551V6.44318C64.8551 4.40909 63.6619 3.15909 61.8438 3.15909C60.5483 3.15909 59.6108 3.79545 59.2188 4.8125H59.1165V3.27273H56.8097V12H59.2301V6.95455ZM67.9446 15.2727C69.7457 15.2727 70.7003 14.3523 71.1946 12.9432L74.5866 3.28409L72.0241 3.27273L70.2003 9.68182H70.1094L68.3026 3.27273H65.7571L68.8878 12.25L68.7457 12.6193C68.4276 13.4375 67.8196 13.4773 66.9673 13.2159L66.4219 15.0227C66.7685 15.1705 67.331 15.2727 67.9446 15.2727ZM81.9489 0.363636H79.5284V12H81.9489V0.363636ZM87.831 12.1705C90.4787 12.1705 92.1264 10.358 92.1264 7.67045C92.1264 4.96591 90.4787 3.15909 87.831 3.15909C85.1832 3.15909 83.5355 4.96591 83.5355 7.67045C83.5355 10.358 85.1832 12.1705 87.831 12.1705ZM87.8423 10.2955C86.6207 10.2955 85.9957 9.17614 85.9957 7.65341C85.9957 6.13068 86.6207 5.00568 87.8423 5.00568C89.0412 5.00568 89.6662 6.13068 89.6662 7.65341C89.6662 9.17614 89.0412 10.2955 87.8423 10.2955ZM97.6321 15.4545C100.126 15.4545 101.899 14.3182 101.899 12.0852V3.27273H99.4957V4.73864H99.4048C99.081 4.02841 98.3707 3.15909 96.9105 3.15909C94.9957 3.15909 93.3764 4.64773 93.3764 7.61932C93.3764 10.5227 94.9503 11.875 96.9162 11.875C98.3082 11.875 99.0866 11.1761 99.4048 10.4545H99.5071V12.0511C99.5071 13.25 98.7401 13.7159 97.6889 13.7159C96.6207 13.7159 96.081 13.25 95.8821 12.7216L93.6435 13.0227C93.9332 14.3977 95.2798 15.4545 97.6321 15.4545ZM97.6832 10.0568C96.4957 10.0568 95.848 9.11364 95.848 7.60795C95.848 6.125 96.4844 5.08523 97.6832 5.08523C98.8594 5.08523 99.5185 6.07955 99.5185 7.60795C99.5185 9.14773 98.848 10.0568 97.6832 10.0568ZM107.768 12.1705C110.416 12.1705 112.064 10.358 112.064 7.67045C112.064 4.96591 110.416 3.15909 107.768 3.15909C105.121 3.15909 103.473 4.96591 103.473 7.67045C103.473 10.358 105.121 12.1705 107.768 12.1705ZM107.78 10.2955C106.558 10.2955 105.933 9.17614 105.933 7.65341C105.933 6.13068 106.558 5.00568 107.78 5.00568C108.979 5.00568 109.604 6.13068 109.604 7.65341C109.604 9.17614 108.979 10.2955 107.78 10.2955Z" fill="#32292F"/>
</svg>
